<?xml version="1.0" encoding="UTF-8"?>
<svg xmlns="http://www.w3.org/2000/svg" xmlns:xlink="http://www.w3.org/1999/xlink" width="40px" height="40px" viewBox="0 0 40 40" version="1.1">
<g id="surface1">
<path style=" stroke:none;fill-rule:nonzero;fill:rgb(78%,65%,55%);fill-opacity:1;" d="M 39.199219 19.628906 C 37.144531 17.660156 26.890625 16.429688 23.65625 16.070312 C 23.8125 15.699219 23.945312 15.316406 24.054688 14.921875 C 24.496094 14.730469 24.972656 14.550781 25.464844 14.398438 C 25.527344 14.578125 25.808594 15.253906 25.96875 15.578125 C 32.476562 15.757812 32.808594 10.742188 33.074219 9.367188 C 33.332031 8.023438 33.320312 6.726562 35.550781 4.351562 C 32.226562 3.382812 27.445312 5.855469 25.84375 9.53125 C 25.242188 9.308594 24.636719 9.140625 24.042969 9.039062 C 23.613281 7.3125 21.386719 2.507812 15.546875 2.507812 C 8.148438 2.507812 0.0859375 8.609375 0.0859375 18.941406 C 0.0859375 27.625 6.015625 35.234375 9.363281 35.234375 C 10.828125 35.234375 12.085938 34.140625 12.382812 33.15625 C 12.628906 33.832031 13.390625 35.921875 13.636719 36.457031 C 14.007812 37.246094 15.714844 37.925781 16.460938 37.109375 C 17.417969 37.640625 19.179688 37.964844 20.140625 36.539062 C 21.988281 36.933594 23.625 35.828125 23.660156 34.515625 C 24.566406 34.464844 25.011719 33.191406 24.8125 32.175781 C 24.667969 31.429688 23.109375 28.75 22.5 27.824219 C 23.703125 28.804688 26.753906 29.082031 27.125 27.828125 C 29.066406 29.351562 32.09375 28.550781 32.332031 27.3125 C 34.691406 27.925781 37.398438 26.578125 36.957031 24.945312 C 40.746094 24.683594 40.261719 20.652344 39.199219 19.628906 Z M 39.199219 19.628906 "/>
<path style=" stroke:none;fill-rule:nonzero;fill:rgb(0%,67.450982%,93.333334%);fill-opacity:1;" d="M 28.640625 11.027344 C 29.457031 9.40625 30.484375 7.640625 31.78125 6.542969 C 30.355469 7.121094 28.945312 8.835938 28.113281 10.675781 C 27.6875 10.40625 27.257812 10.164062 26.824219 9.953125 C 27.984375 7.472656 30.683594 5.402344 33.660156 5.242188 C 31.667969 7.050781 32.375 10.804688 30.734375 12.792969 C 30.265625 12.320312 29.191406 11.414062 28.640625 11.027344 Z M 27.355469 13.664062 C 27.355469 13.601562 27.378906 13.125 27.421875 12.90625 C 27.308594 12.878906 26.597656 12.742188 26.226562 12.75 C 26.199219 13.214844 26.421875 14.003906 26.644531 14.480469 C 28.15625 14.449219 29.25 13.996094 29.894531 13.582031 C 29.34375 13.324219 28.410156 13.097656 27.699219 12.960938 C 27.621094 13.125 27.425781 13.542969 27.355469 13.664062 Z M 27.355469 13.664062 "/>
<path style=" stroke:none;fill-rule:nonzero;fill:rgb(16.862746%,68.627453%,16.862746%);fill-opacity:1;" d="M 21.730469 26.480469 L 21.734375 26.488281 C 21.542969 26.074219 21.335938 25.574219 21.09375 24.917969 C 22.042969 26.296875 25.011719 25.585938 24.855469 24.351562 C 26.308594 25.445312 29.296875 24.167969 28.617188 22.636719 C 30.074219 23.3125 31.734375 21.949219 31.363281 21.355469 C 33.84375 21.832031 36.222656 22.3125 36.96875 22.5 C 36.472656 23.308594 35.34375 23.882812 33.640625 23.484375 C 34.5625 24.738281 32.773438 26.242188 30.289062 25.414062 C 30.835938 26.644531 28.621094 27.75 26.101562 26.46875 C 26.132812 27.699219 22.980469 27.839844 21.730469 26.480469 Z M 26.652344 20.261719 C 29.535156 20.480469 34.296875 20.910156 37.246094 21.324219 C 37.058594 20.363281 36.550781 20.089844 34.949219 19.660156 C 33.230469 19.84375 28.859375 20.273438 26.652344 20.261719 Z M 26.652344 20.261719 "/>
<path style=" stroke:none;fill-rule:nonzero;fill:rgb(100%,80.000001%,18.431373%);fill-opacity:1;" d="M 24.855469 24.351562 C 26.308594 25.445312 29.296875 24.167969 28.617188 22.636719 C 30.074219 23.3125 31.734375 21.949219 31.363281 21.355469 C 28.429688 20.789062 25.351562 20.222656 24.652344 20.121094 C 25.074219 20.144531 25.777344 20.191406 26.652344 20.261719 C 28.859375 20.273438 33.230469 19.84375 34.949219 19.660156 C 32.164062 18.953125 26.472656 17.921875 22.539062 17.667969 C 22.359375 17.933594 22.023438 18.386719 21.441406 18.863281 C 19.722656 22.503906 16.605469 24.921875 13.15625 24.921875 C 12.152344 24.921875 11.027344 24.753906 9.769531 24.347656 C 8.984375 25.191406 5.632812 25.828125 2.914062 24.496094 C 5.070312 29.542969 10.070312 32.914062 15.605469 32.914062 C 20.265625 32.914062 22.335938 28.152344 21.882812 26.894531 C 21.773438 26.589844 21.335938 25.574219 21.09375 24.917969 C 22.042969 26.296875 25.011719 25.585938 24.855469 24.351562 Z M 24.855469 24.351562 "/>
<path style=" stroke:none;fill-rule:nonzero;fill:rgb(80.784315%,80.784315%,80.784315%);fill-opacity:1;" d="M 22.03125 14.773438 C 22.441406 14.546875 23.863281 13.6875 25.21875 13.363281 C 25.195312 13.210938 25.179688 13.058594 25.171875 12.90625 C 24.28125 13.121094 22.605469 13.839844 21.644531 12.847656 C 23.671875 13.460938 24.683594 12.304688 26.171875 12.304688 C 27.0625 12.304688 28.328125 12.550781 29.324219 12.945312 C 28.523438 12.203125 25.890625 9.964844 22.628906 9.957031 C 21.902344 10.839844 21.113281 12.75 22.03125 14.773438 Z M 22.03125 14.773438 "/>
<path style=" stroke:none;fill-rule:nonzero;fill:rgb(93.725491%,34.117648%,20.392157%);fill-opacity:1;" d="M 9.769531 24.347656 C 11.027344 24.753906 12.152344 24.921875 13.15625 24.921875 C 16.605469 24.921875 19.722656 22.503906 21.441406 18.863281 C 20.167969 19.925781 17.957031 20.835938 14.507812 20.835938 C 17.582031 20.136719 20.226562 18.605469 21.574219 16.367188 C 20.628906 14.859375 19.601562 11.527344 22.203125 8.890625 C 21.800781 7.605469 19.855469 4.214844 15.546875 4.214844 C 8.023438 4.214844 1.792969 10.507812 1.792969 18.941406 C 1.792969 20.9375 2.195312 22.808594 2.914062 24.496094 C 5.632812 25.828125 8.984375 25.191406 9.769531 24.347656 Z M 9.769531 24.347656 "/>
<path style=" stroke:none;fill-rule:nonzero;fill:rgb(100%,80.000001%,18.431373%);fill-opacity:1;" d="M 12.027344 11.507812 C 12.027344 13.425781 13.582031 14.980469 15.5 14.980469 C 17.417969 14.980469 18.972656 13.425781 18.972656 11.507812 C 18.972656 9.589844 17.417969 8.035156 15.5 8.035156 C 13.582031 8.035156 12.027344 9.589844 12.027344 11.507812 Z M 12.027344 11.507812 "/>
<path style=" stroke:none;fill-rule:nonzero;fill:rgb(78%,65%,55%);fill-opacity:1;" d="M 13.417969 11.507812 C 13.417969 12.65625 14.351562 13.589844 15.5 13.589844 C 16.648438 13.589844 17.578125 12.65625 17.578125 11.507812 C 17.578125 10.359375 16.648438 9.429688 15.5 9.429688 C 14.351562 9.429688 13.417969 10.359375 13.417969 11.507812 Z M 13.417969 11.507812 "/>
<path style=" stroke:none;fill-rule:nonzero;fill:rgb(100%,100%,100%);fill-opacity:1;" d="M 16.710938 10.585938 C 16.710938 10.167969 16.167969 9.832031 15.5 9.832031 C 14.828125 9.832031 14.285156 10.167969 14.285156 10.585938 C 14.285156 11.003906 14.828125 11.339844 15.5 11.339844 C 16.167969 11.339844 16.710938 11.003906 16.710938 10.585938 Z M 16.710938 10.585938 "/>
</g>
</svg>
