<?xml version="1.0" encoding="UTF-8"?>
<svg xmlns="http://www.w3.org/2000/svg" xmlns:xlink="http://www.w3.org/1999/xlink" width="13px" height="13px" viewBox="0 0 13 13" version="1.1">
<g id="surface1">
<path style=" stroke:none;fill-rule:nonzero;fill:rgb(10.980392%,12.156863%,16.470589%);fill-opacity:1;" d="M 1.011719 2.070312 C 1.433594 2.070312 1.855469 2.070312 2.289062 2.070312 C 2.277344 2.21875 2.265625 2.371094 2.25 2.527344 C 2.140625 3.554688 2.140625 3.554688 2.472656 4.476562 C 2.800781 4.769531 3.234375 4.921875 3.640625 5.070312 C 3.925781 5.183594 4.175781 5.335938 4.433594 5.5 C 4.527344 5.554688 4.621094 5.609375 4.714844 5.664062 C 4.871094 5.753906 5.023438 5.847656 5.179688 5.9375 C 5.351562 6.042969 5.527344 6.144531 5.703125 6.246094 C 5.757812 6.28125 5.8125 6.3125 5.867188 6.347656 C 5.917969 6.375 5.96875 6.40625 6.023438 6.4375 C 6.066406 6.460938 6.113281 6.488281 6.15625 6.515625 C 6.296875 6.585938 6.398438 6.621094 6.554688 6.632812 C 6.683594 6.585938 6.683594 6.585938 6.8125 6.5 C 6.863281 6.472656 6.914062 6.441406 6.964844 6.410156 C 7.019531 6.378906 7.074219 6.34375 7.128906 6.3125 C 7.246094 6.242188 7.359375 6.171875 7.476562 6.101562 C 7.535156 6.066406 7.59375 6.03125 7.65625 5.996094 C 7.925781 5.832031 8.199219 5.675781 8.472656 5.519531 C 8.578125 5.457031 8.679688 5.394531 8.785156 5.335938 C 9.015625 5.203125 9.242188 5.070312 9.46875 4.9375 C 9.527344 4.90625 9.585938 4.871094 9.648438 4.835938 C 9.761719 4.769531 9.871094 4.703125 9.984375 4.640625 C 10.035156 4.609375 10.085938 4.582031 10.140625 4.550781 C 10.183594 4.523438 10.226562 4.5 10.273438 4.472656 C 10.367188 4.417969 10.457031 4.359375 10.550781 4.296875 C 10.574219 4.199219 10.574219 4.199219 10.570312 4.082031 C 10.574219 4.015625 10.574219 4.015625 10.574219 3.945312 C 10.574219 3.898438 10.574219 3.851562 10.578125 3.800781 C 10.578125 3.75 10.578125 3.703125 10.578125 3.652344 C 10.582031 3.492188 10.585938 3.335938 10.585938 3.175781 C 10.585938 3.070312 10.589844 2.964844 10.589844 2.855469 C 10.597656 2.59375 10.597656 2.332031 10.601562 2.070312 C 11.042969 2.070312 11.480469 2.070312 11.933594 2.070312 C 11.960938 2.480469 11.984375 2.890625 12 3.300781 C 12.003906 3.441406 12.011719 3.578125 12.023438 3.71875 C 12.101562 4.84375 12.101562 4.84375 11.824219 5.167969 C 11.546875 5.394531 11.234375 5.539062 10.902344 5.671875 C 10.730469 5.742188 10.582031 5.832031 10.421875 5.929688 C 10.332031 5.980469 10.238281 6.035156 10.144531 6.089844 C 9.699219 6.347656 9.253906 6.605469 8.808594 6.867188 C 8.277344 7.175781 7.746094 7.488281 7.214844 7.796875 C 7.136719 7.84375 7.136719 7.84375 7.054688 7.890625 C 7.003906 7.917969 6.957031 7.949219 6.90625 7.976562 C 6.84375 8.015625 6.84375 8.015625 6.777344 8.050781 C 6.738281 8.074219 6.699219 8.097656 6.660156 8.117188 C 6.625 8.140625 6.589844 8.164062 6.550781 8.1875 C 6.445312 8.222656 6.445312 8.222656 6.34375 8.191406 C 6.304688 8.167969 6.269531 8.148438 6.230469 8.125 C 6.1875 8.101562 6.148438 8.074219 6.101562 8.050781 C 6.035156 8.007812 6.035156 8.007812 5.964844 7.964844 C 5.914062 7.9375 5.867188 7.910156 5.816406 7.878906 C 5.652344 7.78125 5.492188 7.683594 5.328125 7.585938 C 5.214844 7.519531 5.097656 7.453125 4.984375 7.382812 C 4.800781 7.277344 4.621094 7.171875 4.441406 7.0625 C 4.027344 6.820312 3.613281 6.578125 3.195312 6.339844 C 2.695312 6.054688 2.199219 5.765625 1.703125 5.472656 C 1.667969 5.453125 1.636719 5.433594 1.605469 5.414062 C 1.515625 5.363281 1.425781 5.308594 1.335938 5.257812 C 1.261719 5.210938 1.261719 5.210938 1.183594 5.164062 C 1.066406 5.09375 1.066406 5.09375 1.011719 5.039062 C 1.007812 4.949219 1.007812 4.855469 1.007812 4.761719 C 1.007812 4.703125 1.007812 4.644531 1.007812 4.582031 C 1.007812 4.515625 1.007812 4.453125 1.007812 4.386719 C 1.007812 4.320312 1.007812 4.253906 1.007812 4.1875 C 1.007812 4.011719 1.007812 3.835938 1.007812 3.660156 C 1.007812 3.480469 1.007812 3.300781 1.007812 3.125 C 1.011719 2.773438 1.011719 2.421875 1.011719 2.070312 Z M 1.011719 2.070312 "/>
<path style=" stroke:none;fill-rule:nonzero;fill:rgb(0%,74.117649%,42.352942%);fill-opacity:1;" d="M 1.011719 5.835938 C 1.363281 6.003906 1.699219 6.1875 2.03125 6.390625 C 2.429688 6.632812 2.832031 6.871094 3.238281 7.105469 C 3.289062 7.132812 3.34375 7.164062 3.398438 7.199219 C 3.507812 7.261719 3.617188 7.324219 3.726562 7.386719 C 3.992188 7.542969 4.261719 7.699219 4.527344 7.851562 C 4.632812 7.914062 4.738281 7.976562 4.84375 8.035156 C 4.894531 8.066406 4.949219 8.097656 5.003906 8.128906 C 5.058594 8.160156 5.113281 8.191406 5.167969 8.222656 C 5.257812 8.277344 5.351562 8.328125 5.441406 8.382812 C 5.472656 8.402344 5.5 8.417969 5.53125 8.4375 C 5.757812 8.566406 5.984375 8.699219 6.210938 8.832031 C 6.257812 8.855469 6.304688 8.882812 6.351562 8.910156 C 6.398438 8.9375 6.398438 8.9375 6.445312 8.96875 C 6.507812 8.933594 6.507812 8.933594 6.566406 8.898438 C 6.867188 8.726562 7.171875 8.554688 7.472656 8.386719 C 8.136719 8.015625 8.792969 7.636719 9.445312 7.25 C 9.589844 7.164062 9.738281 7.074219 9.886719 6.988281 C 9.960938 6.945312 9.960938 6.945312 10.035156 6.902344 C 10.132812 6.84375 10.230469 6.789062 10.328125 6.730469 C 10.574219 6.585938 10.824219 6.4375 11.070312 6.289062 C 11.117188 6.257812 11.167969 6.230469 11.21875 6.199219 C 11.3125 6.140625 11.40625 6.085938 11.5 6.027344 C 11.539062 6.003906 11.582031 5.976562 11.625 5.953125 C 11.664062 5.929688 11.699219 5.90625 11.738281 5.882812 C 11.828125 5.835938 11.828125 5.835938 11.933594 5.835938 C 11.953125 6.074219 11.96875 6.3125 11.976562 6.554688 C 11.984375 6.621094 11.988281 6.6875 11.996094 6.757812 C 12.003906 6.964844 11.996094 7.125 11.933594 7.324219 C 11.757812 7.496094 11.5625 7.597656 11.339844 7.699219 C 11.183594 7.773438 11.039062 7.863281 10.890625 7.953125 C 10.769531 8.027344 10.644531 8.097656 10.523438 8.167969 C 10.457031 8.207031 10.386719 8.246094 10.320312 8.285156 C 10.183594 8.367188 10.042969 8.445312 9.90625 8.527344 C 9.703125 8.644531 9.5 8.765625 9.296875 8.882812 C 9.265625 8.902344 9.234375 8.917969 9.199219 8.9375 C 9.132812 8.976562 9.070312 9.015625 9.003906 9.054688 C 8.484375 9.359375 7.960938 9.664062 7.4375 9.964844 C 7.386719 9.996094 7.335938 10.027344 7.28125 10.058594 C 7.1875 10.113281 7.09375 10.167969 6.996094 10.222656 C 6.917969 10.265625 6.839844 10.316406 6.765625 10.363281 C 6.667969 10.425781 6.667969 10.425781 6.5 10.507812 C 6.304688 10.445312 6.132812 10.347656 5.957031 10.246094 C 5.90625 10.214844 5.851562 10.183594 5.796875 10.152344 C 5.738281 10.121094 5.679688 10.085938 5.621094 10.050781 C 5.558594 10.015625 5.5 9.980469 5.4375 9.945312 C 4.851562 9.605469 4.265625 9.265625 3.679688 8.921875 C 3.382812 8.75 3.089844 8.578125 2.792969 8.40625 C 2.683594 8.34375 2.578125 8.28125 2.476562 8.214844 C 2.226562 8.070312 1.988281 7.941406 1.71875 7.835938 C 1.167969 7.613281 1.167969 7.613281 1.011719 7.375 C 0.890625 6.875 0.949219 6.34375 1.011719 5.835938 Z M 1.011719 5.835938 "/>
<path style=" stroke:none;fill-rule:nonzero;fill:rgb(10.980392%,12.156863%,16.470589%);fill-opacity:1;" d="M 1.011719 8.171875 C 1.234375 8.238281 1.425781 8.320312 1.625 8.441406 C 1.679688 8.476562 1.734375 8.507812 1.792969 8.542969 C 1.882812 8.597656 1.882812 8.597656 1.976562 8.652344 C 2.070312 8.710938 2.167969 8.765625 2.265625 8.824219 C 2.332031 8.863281 2.398438 8.90625 2.464844 8.945312 C 2.828125 9.160156 3.191406 9.371094 3.554688 9.585938 C 3.617188 9.621094 3.683594 9.660156 3.746094 9.699219 C 4.054688 9.875 4.363281 10.054688 4.667969 10.234375 C 4.726562 10.265625 4.78125 10.296875 4.839844 10.332031 C 4.945312 10.394531 5.050781 10.457031 5.160156 10.519531 C 5.390625 10.648438 5.617188 10.785156 5.839844 10.925781 C 5.894531 10.960938 5.894531 10.960938 5.949219 10.996094 C 6.015625 11.039062 6.082031 11.082031 6.144531 11.125 C 6.289062 11.21875 6.371094 11.253906 6.542969 11.226562 C 6.78125 11.109375 7.011719 10.976562 7.238281 10.835938 C 7.34375 10.773438 7.449219 10.710938 7.554688 10.648438 C 7.609375 10.617188 7.664062 10.585938 7.71875 10.550781 C 7.984375 10.394531 8.25 10.238281 8.519531 10.085938 C 8.570312 10.054688 8.625 10.023438 8.675781 9.992188 C 8.894531 9.867188 9.113281 9.738281 9.332031 9.613281 C 10.113281 9.160156 10.113281 9.160156 10.890625 8.703125 C 10.921875 8.683594 10.953125 8.664062 10.984375 8.644531 C 11.125 8.5625 11.265625 8.476562 11.402344 8.390625 C 11.449219 8.359375 11.5 8.332031 11.546875 8.300781 C 11.609375 8.261719 11.609375 8.261719 11.671875 8.222656 C 11.773438 8.171875 11.773438 8.171875 11.933594 8.171875 C 11.933594 8.660156 11.933594 9.152344 11.933594 9.65625 C 11.792969 9.738281 11.792969 9.738281 11.648438 9.820312 C 10.949219 10.214844 10.25 10.617188 9.558594 11.027344 C 9.253906 11.207031 8.945312 11.386719 8.636719 11.5625 C 8.585938 11.59375 8.53125 11.625 8.480469 11.65625 C 8.257812 11.785156 8.035156 11.914062 7.8125 12.042969 C 7.695312 12.113281 7.574219 12.179688 7.453125 12.25 C 7.34375 12.316406 7.230469 12.378906 7.117188 12.445312 C 7.066406 12.476562 7.015625 12.503906 6.964844 12.535156 C 6.917969 12.5625 6.875 12.585938 6.828125 12.613281 C 6.734375 12.667969 6.644531 12.726562 6.554688 12.789062 C 6.347656 12.769531 6.203125 12.695312 6.027344 12.59375 C 5.976562 12.5625 5.925781 12.535156 5.875 12.503906 C 5.820312 12.472656 5.765625 12.441406 5.710938 12.40625 C 5.59375 12.339844 5.480469 12.269531 5.363281 12.203125 C 5.304688 12.167969 5.242188 12.132812 5.183594 12.09375 C 4.917969 11.9375 4.652344 11.785156 4.386719 11.628906 C 4.070312 11.449219 3.757812 11.265625 3.445312 11.082031 C 3.378906 11.046875 3.3125 11.007812 3.25 10.96875 C 3.082031 10.871094 2.917969 10.777344 2.753906 10.675781 C 2.449219 10.496094 2.152344 10.328125 1.824219 10.1875 C 1.191406 9.902344 1.191406 9.902344 1.011719 9.65625 C 0.878906 9.171875 0.941406 8.660156 1.011719 8.171875 Z M 1.011719 8.171875 "/>
<path style=" stroke:none;fill-rule:nonzero;fill:rgb(0%,73.333335%,42.352942%);fill-opacity:1;" d="M 7.777344 1.0625 C 7.777344 1.375 7.777344 1.691406 7.777344 2.015625 C 7.679688 2.03125 7.582031 2.042969 7.480469 2.054688 C 7.1875 2.105469 6.929688 2.171875 6.714844 2.386719 C 6.707031 2.460938 6.703125 2.535156 6.703125 2.609375 C 6.699219 2.65625 6.699219 2.703125 6.699219 2.75 C 6.699219 2.824219 6.699219 2.824219 6.695312 2.902344 C 6.695312 2.957031 6.695312 3.007812 6.691406 3.058594 C 6.6875 3.226562 6.6875 3.390625 6.683594 3.558594 C 6.679688 3.671875 6.679688 3.78125 6.675781 3.894531 C 6.671875 4.171875 6.664062 4.445312 6.660156 4.722656 C 6.34375 4.722656 6.027344 4.722656 5.699219 4.722656 C 5.699219 3.550781 5.699219 2.375 5.699219 1.167969 C 6.015625 1.167969 6.332031 1.167969 6.660156 1.167969 C 6.675781 1.289062 6.695312 1.414062 6.714844 1.539062 C 6.734375 1.519531 6.757812 1.496094 6.78125 1.476562 C 7.09375 1.1875 7.351562 1.0625 7.777344 1.0625 Z M 7.777344 1.0625 "/>
</g>
</svg>
